v -5.07095100 64.25585900 41.91799200
v -5.07095100 64.25585900 41.91799200
v -5.07095100 64.25585900 41.91799200
v -5.07095100 64.25585900 41.91799200
v -5.07095100 64.25585900 41.91799200
v -5.07095100 64.25585900 41.91799200
v -5.07095100 64.25585900 41.91799200
v 1.76640800 62.38380400 32.02486000
v 1.76640800 62.38380400 32.02486000
v 1.76640800 62.38380400 32.02486000
v 1.76640800 62.38380400 32.02486000
v 1.76640800 62.38380400 32.02486000
v 1.76640800 62.38380400 32.02486000
v 1.76640800 62.38380400 32.02486000
v 1.76640800 62.38380400 32.02486000
v 0.00000000 62.30240600 31.78246300
v 0.00000000 62.30240600 31.78246300
v 0.00000000 62.30240600 31.78246300
v 0.00000000 62.30240600 31.78246300
v 0.00000000 62.30240600 31.78246300
v 0.00000000 62.30240600 31.78246300
v 0.00000000 62.30240600 31.78246300
v 5.09553100 72.27101900 -39.22813400
v 5.09553100 72.27101900 -39.22813400
v 5.09553100 72.27101900 -39.22813400
v 5.09553100 72.27101900 -39.22813400
v 5.09553100 72.27101900 -39.22813400
v 2.34893900 50.42084900 -41.60421400
v 2.34893900 50.42084900 -41.60421400
v 2.34893900 50.42084900 -41.60421400
v 2.34893900 50.42084900 -41.60421400
v 3.21498900 62.80239500 32.64954000
v 3.21498900 62.80239500 32.64954000
v 3.21498900 62.80239500 32.64954000
v 3.21498900 62.80239500 32.64954000
v -2.15931700 62.51274900 32.15638400
v -2.15931700 62.51274900 32.15638400
v -2.15931700 62.51274900 32.15638400
v -2.15931700 62.51274900 32.15638400
v -2.15931700 62.51274900 32.15638400
v -2.15931700 62.51274900 32.15638400
v 2.32292800 34.35287500 -51.64868900
v 2.32292800 34.35287500 -51.64868900
v 2.32292800 34.35287500 -51.64868900
v 2.32292800 34.35287500 -51.64868900
v -3.22461700 50.96180300 -52.25795700
v -3.22461700 50.96180300 -52.25795700
v -3.22461700 50.96180300 -52.25795700
v -3.22461700 50.96180300 -52.25795700
v -3.22461700 50.96180300 -52.25795700
v 2.25874600 31.78389900 -38.45063000
v 2.25874600 31.78389900 -38.45063000
v 2.25874600 31.78389900 -38.45063000
v 2.25874600 31.78389900 -38.45063000
v -2.27745700 -49.06504400 35.06162300
v -2.27745700 -49.06504400 35.06162300
v -2.27745700 -49.06504400 35.06162300
v -2.27745700 -49.06504400 35.06162300
v 5.44849700 -57.90069200 29.72523700
v 5.44849700 -57.90069200 29.72523700
v 5.44849700 -57.90069200 29.72523700
v 5.44849700 -57.90069200 29.72523700
v 5.44849700 -57.90069200 29.72523700
v 5.44849700 -57.90069200 29.72523700
v 5.44849700 -57.90069200 29.72523700
v 5.44849700 -57.90069200 29.72523700
v 5.44849700 -57.90069200 29.72523700
v 2.59647500 -44.82701900 24.47402000
v 2.59647500 -44.82701900 24.47402000
v 2.59647500 -44.82701900 24.47402000
v 2.59647500 -44.82701900 24.47402000
v 2.59647500 -44.82701900 24.47402000
v 5.73246800 54.86415500 -49.25679800
v 5.73246800 54.86415500 -49.25679800
v 5.73246800 54.86415500 -49.25679800
v 5.73246800 54.86415500 -49.25679800
v 5.73246800 54.86415500 -49.25679800
v 5.73246800 54.86415500 -49.25679800
v 5.73246800 54.86415500 -49.25679800
v 5.73246800 54.86415500 -49.25679800
v -5.40752600 33.90311400 -45.46831500
v -5.40752600 33.90311400 -45.46831500
v -5.40752600 33.90311400 -45.46831500
v -5.40752600 33.90311400 -45.46831500
v -5.40752600 33.90311400 -45.46831500
v -5.40752600 33.90311400 -45.46831500
v -2.61285400 62.64027400 32.32751800
v -2.61285400 62.64027400 32.32751800
v -2.61285400 62.64027400 32.32751800
v -2.61285400 62.64027400 32.32751800
v -2.49718700 62.59642000 32.28784900
v -2.49718700 62.59642000 32.28784900
v -2.49718700 62.59642000 32.28784900
v -2.49718700 62.59642000 32.28784900
v -2.49718700 62.59642000 32.28784900
v -2.49718700 62.59642000 32.28784900
v -2.49718700 62.59959400 32.28445800
v -2.49718700 62.59959400 32.28445800
v -2.49718700 62.59959400 32.28445800
v -2.49718700 62.59959400 32.28445800
v 0.00070500 61.65605900 -35.56770700
v 0.00070500 61.65605900 -35.56770700
v 0.00070500 61.65605900 -35.56770700
v 0.00070500 61.65605900 -35.56770700
v 0.00070500 61.65605900 -35.56770700
v 0.00070500 61.65605900 -35.56770700
v -5.84174000 72.42959600 -35.19461400
v -5.84174000 72.42959600 -35.19461400
v -5.84174000 72.42959600 -35.19461400
v -5.84174000 72.42959600 -35.19461400
v -5.84174000 72.42959600 -35.19461400
v -5.84174000 72.42959600 -35.19461400
v -5.84174000 72.42959600 -35.19461400
v -1.22035300 72.92459900 -42.97587200
v -1.22035300 72.92459900 -42.97587200
v -1.22035300 72.92459900 -42.97587200
v -1.22035300 72.92459900 -42.97587200
v -1.22035300 72.92459900 -42.97587200
v -2.82125300 69.71144900 -18.70312100
v -2.82125300 69.71144900 -18.70312100
v -2.82125300 69.71144900 -18.70312100
v -2.82125300 69.71144900 -18.70312100
v -2.82125300 69.71144900 -18.70312100
v 4.49505200 74.36114500 -0.49288700
v 4.49505200 74.36114500 -0.49288700
v 4.49505200 74.36114500 -0.49288700
v 4.49505200 74.36114500 -0.49288700
v 4.49505200 74.36114500 -0.49288700
v 4.49505200 74.36114500 -0.49288700
v 4.49505200 74.36114500 -0.49288700
v -1.53989700 83.16613800 -0.45685100
v -1.53989700 83.16613800 -0.45685100
v -1.53989700 83.16613800 -0.45685100
v -1.53989700 83.16613800 -0.45685100
v -1.53989700 83.16613800 -0.45685100
v -4.89869100 76.28101300 29.96762800
v -4.89869100 76.28101300 29.96762800
v -4.89869100 76.28101300 29.96762800
v -4.89869100 76.28101300 29.96762800
v -4.89869100 76.28101300 29.96762800
v -4.89869100 76.28101300 29.96762800
v -4.89869100 76.28101300 29.96762800
v -2.69588000 70.28979500 18.56075500
v -2.69588000 70.28979500 18.56075500
v -2.69588000 70.28979500 18.56075500
v -2.69588000 70.28979500 18.56075500
v -2.69588000 70.28979500 18.56075500
v -2.69588000 70.28979500 18.56075500
v -2.69588000 70.28979500 18.56075500
v -2.69588000 70.28979500 18.56075500
v 4.52814700 80.32195300 19.10440300
v 4.52814700 80.32195300 19.10440300
v 4.52814700 80.32195300 19.10440300
v 4.52814700 80.32195300 19.10440300
v 4.52814700 80.32195300 19.10440300
v 4.52814700 80.32195300 19.10440300
v -0.71403900 62.12097900 31.83122400
v -0.71403900 62.12097900 31.83122400
v -0.71403900 62.12097900 31.83122400
v -0.71403900 62.12097900 31.83122400
v -0.71403900 62.12097900 31.83122400
v -0.71403900 62.12097900 31.83122400
v -0.71403900 62.12097900 31.83122400
v -0.71403900 62.12097900 31.83122400
v -0.71403900 62.12097900 31.83122400
v 3.34834000 68.64080800 40.67191700
v 3.34834000 68.64080800 40.67191700
v 3.34834000 68.64080800 40.67191700
v 3.34834000 68.64080800 40.67191700
v 3.34834000 68.64080800 40.67191700
v 3.34834000 68.64080800 40.67191700
v 0.00000000 62.30525200 31.78080700
v 0.00000000 62.30525200 31.78080700
v 0.00000000 62.30525200 31.78080700
v 0.00000000 62.30525200 31.78080700
v 0.00000000 62.30525200 31.78080700
v 0.00000000 62.30525200 31.78080700
v 2.49718700 62.59642000 32.28784900
v 2.49718700 62.59642000 32.28784900
v 2.49718700 62.59642000 32.28784900
v 2.49718700 62.59642000 32.28784900
v 2.49718700 62.59642000 32.28784900
v 2.49718700 62.59642000 32.28784900
v 2.49718700 62.59959400 32.28445800
v 2.49718700 62.59959400 32.28445800
v 2.49718700 62.59959400 32.28445800
v 2.49718700 62.59959400 32.28445800
v 2.49718700 62.59959400 32.28445800
v 2.49718700 62.59959400 32.28445800
v -2.05297700 45.59073300 49.23407700
v -2.05297700 45.59073300 49.23407700
v -2.05297700 45.59073300 49.23407700
v -2.05297700 45.59073300 49.23407700
v -2.05297700 45.59073300 49.23407700
v -2.05297700 45.59073300 49.23407700
v 2.68596500 43.04773300 37.33602900
v 2.68596500 43.04773300 37.33602900
v 2.68596500 43.04773300 37.33602900
v 2.68596500 43.04773300 37.33602900
v 2.68596500 43.04773300 37.33602900
v 2.68596500 43.04773300 37.33602900
v 5.31445500 64.42662800 33.96192900
v 5.31445500 64.42662800 33.96192900
v 5.31445500 64.42662800 33.96192900
v 5.31445500 64.42662800 33.96192900
v 5.31445500 64.42662800 33.96192900
v 5.31445500 64.42662800 33.96192900
v 5.31445500 64.42662800 33.96192900
v 5.31445500 64.42662800 33.96192900
v 5.31445500 64.42662800 33.96192900
v 5.31445500 64.42662800 33.96192900
v 5.31445500 64.42662800 33.96192900
v 5.31445500 64.42662800 33.96192900
v 2.17136100 62.51802400 32.15928300
v 2.17136100 62.51802400 32.15928300
v 2.17136100 62.51802400 32.15928300
v 2.17136100 62.51802400 32.15928300
v 2.17136100 62.51802400 32.15928300
v 2.17136100 62.51802400 32.15928300
v 2.17136100 62.51802400 32.15928300
v 2.17136100 62.51802400 32.15928300
v -3.75425300 62.73707200 33.19788700
v -3.75425300 62.73707200 33.19788700
v -3.75425300 62.73707200 33.19788700
v -3.75425300 62.73707200 33.19788700
v -3.75425300 62.73707200 33.19788700
v -3.75425300 62.73707200 33.19788700
v -3.75425300 62.73707200 33.19788700
v -3.75425300 62.73707200 33.19788700
v -3.75425300 62.73707200 33.19788700
v -3.75425300 62.73707200 33.19788700
v 5.43603200 43.62337900 45.59920900
v 5.43603200 43.62337900 45.59920900
v 5.43603200 43.62337900 45.59920900
v 5.43603200 43.62337900 45.59920900
v 5.43603200 43.62337900 45.59920900
v 5.43603200 43.62337900 45.59920900
v 0.82370100 -65.81977800 15.28387000
v 0.82370100 -65.81977800 15.28387000
v 0.82370100 -65.81977800 15.28387000
v 0.82370100 -65.81977800 15.28387000
v 0.82370100 -65.81977800 15.28387000
v 5.50455200 -68.05064400 -22.59419600
v 5.50455200 -68.05064400 -22.59419600
v 5.50455200 -68.05064400 -22.59419600
v 5.50455200 -68.05064400 -22.59419600
v 5.50455200 -68.05064400 -22.59419600
v 5.50455200 -68.05064400 -22.59419600
v 5.50455200 -68.05064400 -22.59419600
v 5.50455200 -68.05064400 -22.59419600
v 5.61088500 -79.18342600 8.34990100
v 5.61088500 -79.18342600 8.34990100
v 5.61088500 -79.18342600 8.34990100
v 5.61088500 -79.18342600 8.34990100
v 5.61088500 -79.18342600 8.34990100
v 5.61088500 -79.18342600 8.34990100
v 5.61088500 -79.18342600 8.34990100
v 2.74781400 -41.59444800 -27.21776400
v 2.74781400 -41.59444800 -27.21776400
v 2.74781400 -41.59444800 -27.21776400
v 2.74781400 -41.59444800 -27.21776400
v 3.91943000 -71.62736500 24.71071800
v 3.91943000 -71.62736500 24.71071800
v 3.91943000 -71.62736500 24.71071800
v -5.88720000 -64.47363300 23.44034000
v -5.88720000 -64.47363300 23.44034000
v -5.88720000 -64.47363300 23.44034000
v -5.88720000 -64.47363300 23.44034000
v -5.88720000 -64.47363300 23.44034000
v -5.88720000 -64.47363300 23.44034000
v -5.88720000 -64.47363300 23.44034000
v -5.88720000 -64.47363300 23.44034000
v -5.88720000 -64.47363300 23.44034000
v 2.80120300 -38.91049600 -40.16959800
v 2.80120300 -38.91049600 -40.16959800
v 2.80120300 -38.91049600 -40.16959800
v 2.80120300 -38.91049600 -40.16959800
v 2.80120300 -38.91049600 -40.16959800
v -5.73144800 -40.75537900 -31.24657400
v -5.73144800 -40.75537900 -31.24657400
v -5.73144800 -40.75537900 -31.24657400
v -5.73144800 -40.75537900 -31.24657400
v -5.73144800 -40.75537900 -31.24657400
v -5.75698800 -60.14112900 -26.69817700
v -5.75698800 -60.14112900 -26.69817700
v -5.75698800 -60.14112900 -26.69817700
v -5.75698800 -60.14112900 -26.69817700
v -5.75698800 -60.14112900 -26.69817700
v 1.37194800 -58.56582300 -22.46134900
v 1.37194800 -58.56582300 -22.46134900
v 1.37194800 -58.56582300 -22.46134900
v 1.37194800 -58.56582300 -22.46134900
v 1.37194800 -58.56582300 -22.46134900
v -3.31261600 -58.27369300 -34.85181400
v -3.31261600 -58.27369300 -34.85181400
v -3.31261600 -58.27369300 -34.85181400
v -3.31261600 -58.27369300 -34.85181400
v -3.31261600 -58.27369300 -34.85181400
v -2.65967900 -72.60277600 25.14214700
v -2.65967900 -72.60277600 25.14214700
v -2.65967900 -72.60277600 25.14214700
v -2.65967900 -72.60277600 25.14214700
v -2.65967900 -72.60277600 25.14214700
v -2.65967900 -72.60277600 25.14214700
v 2.63803700 -71.55042300 3.74632400
v 2.63803700 -71.55042300 3.74632400
v 2.63803700 -71.55042300 3.74632400
v 2.63803700 -71.55042300 3.74632400
v 2.63803700 -71.55042300 3.74632400
v -4.63844600 -81.89238000 4.01483200
v -4.63844600 -81.89238000 4.01483200
v -4.63844600 -81.89238000 4.01483200
v -4.63844600 -81.89238000 4.01483200
v -4.63844600 -81.89238000 4.01483200
v -4.63844600 -81.89238000 4.01483200
v -5.27064500 -73.12559500 -20.28390700
v -5.27064500 -73.12559500 -20.28390700
v -5.27064500 -73.12559500 -20.28390700
v -5.27064500 -73.12559500 -20.28390700
v -5.27064500 -73.12559500 -20.28390700
v -5.27064500 -73.12559500 -20.28390700
v 3.03478700 -64.47515900 -32.58855100
v 3.03478700 -64.47515900 -32.58855100
v 3.03478700 -64.47515900 -32.58855100
v 3.03478700 -64.47515900 -32.58855100
v 3.03478700 -64.47515900 -32.58855100
v -3.27715800 -72.77101900 -0.34379400
v -3.27715800 -72.77101900 -0.34379400
v -3.27715800 -72.77101900 -0.34379400
v -3.27715800 -72.77101900 -0.34379400
v -3.27715800 -72.77101900 -0.34379400
v -3.27715800 -72.77101900 -0.34379400
v -3.27715800 -72.77101900 -0.34379400
v -3.27715800 -72.77101900 -0.34379400
v 3.64984400 -78.92765000 -13.38502600
v 3.64984400 -78.92765000 -13.38502600
v 3.64984400 -78.92765000 -13.38502600
v 3.64984400 -78.92765000 -13.38502600
v 3.64984400 -78.92765000 -13.38502600
v -14.28750000 -31.28142500 -30.97676800
v -14.28750000 -31.28142500 -30.97676800
v -14.28750000 -31.28142500 -30.97676800
v -14.28750000 -31.28142500 -30.97676800
v -14.28750000 -31.28142500 -30.97676800
v 14.28750000 -44.52275800 -42.07714800
v 14.28750000 -44.52275800 -42.07714800
v 14.28750000 -44.52275800 -42.07714800
v 14.28750000 -44.52275800 -42.07714800
v -14.28749900 -56.67295500 -39.81457100
v -14.28749900 -56.67295500 -39.81457100
v -14.28749900 -56.67295500 -39.81457100
v -14.28749900 -56.67295500 -39.81457100
v 14.28749900 -29.27876500 -23.74859400
v 14.28749900 -29.27876500 -23.74859400
v 14.28749900 -29.27876500 -23.74859400
v 14.28749900 -99.44030000 -18.92320100
v 14.28749900 -99.44030000 -18.92320100
v 14.28749900 -99.44030000 -18.92320100
v 14.28749900 -99.44030000 -18.92320100
v -14.28749900 -99.44030000 -18.92320100
v -14.28749900 -99.44030000 -18.92320100
v -14.28749900 -99.44030000 -18.92320100
v -14.28749900 -99.44030000 -18.92320100
v -14.28750000 -85.59689300 -85.49786400
v -14.28750000 -85.59689300 -85.49786400
v -14.28750000 -85.59689300 -85.49786400
v 14.28750000 -85.81469000 -86.88225600
v 14.28750000 -85.81469000 -86.88225600
v 14.28750000 -85.81469000 -86.88225600
v 14.28750000 -85.81469000 -86.88225600
v 14.28750000 -85.81469000 -86.88225600
v 0.26989700 33.22050900 30.12267300
v 0.26989700 33.22050900 30.12267300
v 0.26989700 33.22050900 30.12267300
v 0.26989700 33.22050900 30.12267300
v 0.89069600 -57.87042200 16.69698100
v 0.89069600 -57.87042200 16.69698100
v 0.89069600 -57.87042200 16.69698100
v 0.89069600 -57.87042200 16.69698100
v -45.19215400 23.37939500 96.72139000
v -45.19215400 23.37939500 96.72139000
v -45.19215400 23.37939500 96.72139000
v -45.19215400 -67.70653500 83.26186400
v -45.19215400 -67.70653500 83.26186400
v -45.19215400 -67.70653500 83.26186400
v -45.19215400 -67.70653500 83.26186400
v 9.30000000 23.37939500 96.72139000
v 9.30000000 23.37939500 96.72139000
v 9.30000000 23.37939500 96.72139000
v 9.30000000 23.37939500 96.72139000
v 9.30000000 -67.70653500 83.26186400
v 9.30000000 -67.70653500 83.26186400
v 9.30000000 -67.70653500 83.26186400
vn -0.98490000 -0.11490000 -0.12980000
vn -0.98520000 -0.11230000 -0.12920000
vn -0.25470000 0.68350000 0.68410000
vn -0.04830000 0.35770000 0.93260000
vn -0.95350000 -0.03690000 0.29920000
vn -0.18940000 0.14070000 -0.97180000
vn -0.94150000 -0.32590000 -0.08540000
vn 0.62160000 -0.56800000 -0.53950000
vn -0.41680000 0.49220000 0.76420000
vn -0.08930000 -0.55740000 0.82540000
vn 0.14070000 0.54150000 -0.82880000
vn -0.41590000 0.66420000 0.62120000
vn -0.14060000 0.49760000 0.85600000
vn 0.13020000 -0.83550000 -0.53380000
vn -0.12890000 0.69700000 0.70540000
vn 0.19580000 -0.49220000 -0.84820000
vn -0.08120000 -0.99270000 0.08940000
vn 0.02930000 -0.93100000 0.36370000
vn -0.14060000 0.49760000 0.85600000
vn -0.19480000 -0.49280000 -0.84810000
vn -0.12890000 0.69700000 0.70540000
vn -0.06850000 0.50180000 0.86230000
vn 0.66000000 0.74500000 -0.09640000
vn 0.23210000 0.94600000 -0.22610000
vn 0.99750000 -0.06850000 0.01920000
vn 0.99950000 0.02850000 0.01400000
vn 0.49000000 0.44860000 -0.74750000
vn -0.64970000 0.12990000 0.74900000
vn 0.91860000 -0.02000000 0.39460000
vn 0.37820000 -0.37550000 0.84610000
vn 0.89680000 0.06960000 0.43690000
vn 0.48400000 -0.63930000 -0.59750000
vn 0.06730000 -0.91860000 0.38950000
vn 0.39480000 0.21200000 -0.89400000
vn -0.34540000 -0.27790000 0.89640000
vn -0.35170000 -0.86750000 -0.35170000
vn -0.08120000 -0.99270000 0.08940000
vn 0.13870000 -0.27740000 0.95070000
vn -0.40850000 -0.66600000 -0.62410000
vn 0.27880000 0.95640000 0.08710000
vn -0.19480000 -0.49280000 -0.84810000
vn -0.09560000 -0.97700000 -0.19060000
vn -0.59980000 -0.22850000 -0.76680000
vn 0.98660000 -0.16090000 -0.02650000
vn 0.29240000 0.06270000 -0.95420000
vn -0.59980000 -0.22850000 -0.76680000
vn 0.29240000 0.06270000 -0.95420000
vn -0.83360000 0.27780000 -0.47740000
vn 0.14400000 0.37410000 -0.91620000
vn -0.97780000 0.04360000 -0.20480000
vn 0.98660000 -0.16090000 -0.02650000
vn -0.09560000 -0.97700000 -0.19060000
vn 0.89680000 0.06960000 0.43690000
vn -0.64970000 0.12990000 0.74900000
vn -0.93240000 -0.05130000 0.35770000
vn 0.45590000 -0.13280000 0.88000000
vn 0.18540000 -0.38420000 0.90450000
vn -0.81740000 -0.21240000 0.53550000
vn 0.96810000 -0.17370000 0.18030000
vn 0.92990000 0.05690000 -0.36330000
vn 0.11310000 -0.35200000 0.92910000
vn 0.18540000 -0.38420000 0.90450000
vn -0.09580000 0.88540000 -0.45480000
vn 0.93850000 0.06880000 -0.33830000
vn 0.94620000 0.23300000 -0.22480000
vn 0.40190000 -0.14140000 0.90470000
vn 0.45590000 -0.13280000 0.88000000
vn 0.93850000 0.06880000 -0.33830000
vn 0.92990000 0.05690000 -0.36330000
vn -0.69960000 0.33530000 -0.63100000
vn -0.21050000 0.14180000 -0.96730000
vn 0.94690000 0.04560000 -0.31830000
vn 0.29240000 0.06270000 -0.95420000
vn 0.14400000 0.37410000 -0.91620000
vn 0.89680000 0.06960000 0.43690000
vn 0.99950000 0.02850000 0.01400000
vn 0.98660000 -0.16090000 -0.02650000
vn -0.22220000 -0.90730000 0.35710000
vn 0.49000000 0.44860000 -0.74750000
vn 0.91860000 -0.02000000 0.39460000
vn -0.09560000 -0.97700000 -0.19060000
vn -0.64970000 0.12990000 0.74900000
vn -0.38850000 -0.24150000 0.88920000
vn 0.37820000 -0.37550000 0.84610000
vn -0.59980000 -0.22850000 -0.76680000
vn -0.97780000 0.04360000 -0.20480000
vn 0.45510000 0.65030000 0.60830000
vn 0.32870000 0.88390000 0.33270000
vn -0.03970000 0.61080000 -0.79080000
vn -0.45240000 -0.73010000 -0.51220000
vn -0.03970000 0.61080000 -0.79080000
vn -0.35170000 -0.86750000 -0.35170000
vn 0.34660000 0.68460000 0.64120000
vn 0.45510000 0.65030000 0.60830000
vn -0.45240000 -0.73010000 -0.51220000
vn -0.40850000 -0.66600000 -0.62410000
vn -0.40850000 -0.66600000 -0.62410000
vn 0.27880000 0.95640000 0.08710000
vn 0.45510000 0.65030000 0.60830000
vn 0.34660000 0.68460000 0.64120000
vn -0.38850000 -0.24150000 0.88920000
vn -0.87490000 -0.47730000 0.08160000
vn 0.91860000 -0.02000000 0.39460000
vn 0.37820000 -0.37550000 0.84610000
vn -0.22220000 -0.90730000 0.35710000
vn -0.33970000 -0.86950000 0.35850000
vn -0.83360000 0.27780000 -0.47740000
vn -0.38850000 -0.24150000 0.88920000
vn -0.97780000 0.04360000 -0.20480000
vn -0.87490000 -0.47730000 0.08160000
vn -0.45030000 0.86730000 -0.21230000
vn -0.79790000 -0.60100000 0.04710000
vn -0.91610000 0.40080000 -0.01040000
vn 0.23210000 0.94600000 -0.22610000
vn 0.49000000 0.44860000 -0.74750000
vn -0.45030000 0.86730000 -0.21230000
vn 0.14400000 0.37410000 -0.91620000
vn -0.83360000 0.27780000 -0.47740000
vn 0.51570000 -0.85670000 0.01160000
vn -0.33970000 -0.86950000 0.35850000
vn -0.93300000 -0.35970000 0.00870000
vn -0.79790000 -0.60100000 0.04710000
vn -0.87490000 -0.47730000 0.08160000
vn 0.99950000 0.02850000 0.01400000
vn -0.22220000 -0.90730000 0.35710000
vn 0.51570000 -0.85670000 0.01160000
vn 0.99920000 0.03730000 -0.01300000
vn -0.33970000 -0.86950000 0.35850000
vn -0.17620000 -0.94690000 -0.26880000
vn 0.99750000 -0.06850000 0.01920000
vn 0.23210000 0.94600000 -0.22610000
vn -0.91610000 0.40080000 -0.01040000
vn -0.18520000 0.96270000 0.19740000
vn 0.66000000 0.74500000 -0.09640000
vn -0.45030000 0.86730000 -0.21230000
vn -0.98490000 -0.11490000 -0.12980000
vn -0.79790000 -0.60100000 0.04710000
vn -0.93300000 -0.35970000 0.00870000
vn -0.25470000 0.68350000 0.68410000
vn -0.18520000 0.96270000 0.19740000
vn -0.91610000 0.40080000 -0.01040000
vn 0.17960000 0.86090000 0.47610000
vn -0.17620000 -0.94690000 -0.26880000
vn -0.36650000 -0.81580000 -0.44740000
vn -0.93300000 -0.35970000 0.00870000
vn -0.98490000 -0.11490000 -0.12980000
vn 0.62160000 -0.56800000 -0.53950000
vn -0.98520000 -0.11230000 -0.12920000
vn 0.13020000 -0.83550000 -0.53380000
vn 0.51570000 -0.85670000 0.01160000
vn 0.99920000 0.03730000 -0.01300000
vn 0.96730000 0.19710000 0.15970000
vn 0.17960000 0.86090000 0.47610000
vn -0.18520000 0.96270000 0.19740000
vn 0.99750000 -0.06850000 0.01920000
vn 0.66000000 0.74500000 -0.09640000
vn -0.36650000 -0.81580000 -0.44740000
vn -0.03970000 0.61080000 -0.79080000
vn -0.12890000 0.69700000 0.70540000
vn 0.34660000 0.68460000 0.64120000
vn 0.27880000 0.95640000 0.08710000
vn 0.13020000 -0.83550000 -0.53380000
vn 0.13870000 -0.27740000 0.95070000
vn 0.32870000 0.88390000 0.33270000
vn -0.06850000 0.50180000 0.86230000
vn -0.04830000 0.35770000 0.93260000
vn 0.17960000 0.86090000 0.47610000
vn -0.25470000 0.68350000 0.68410000
vn 0.96730000 0.19710000 0.15970000
vn 0.47080000 0.20810000 0.85730000
vn 0.97050000 0.12190000 0.20780000
vn 0.19580000 -0.49220000 -0.84820000
vn 0.13870000 -0.27740000 0.95070000
vn -0.14060000 0.49760000 0.85600000
vn -0.08930000 -0.55740000 0.82540000
vn -0.06850000 0.50180000 0.86230000
vn -0.19480000 -0.49280000 -0.84810000
vn 0.14070000 0.54150000 -0.82880000
vn 0.40740000 -0.66610000 -0.62480000
vn -0.66060000 0.54850000 0.51260000
vn -0.41590000 0.66420000 0.62120000
vn 0.06730000 -0.91860000 0.38950000
vn 0.48400000 -0.63930000 -0.59750000
vn 0.40740000 -0.66610000 -0.62480000
vn 0.48400000 -0.63930000 -0.59750000
vn 0.39480000 0.21200000 -0.89400000
vn -0.66060000 0.54850000 0.51260000
vn -0.41680000 0.49220000 0.76420000
vn -0.41590000 0.66420000 0.62120000
vn -0.04830000 0.35770000 0.93260000
vn 0.47080000 0.20810000 0.85730000
vn -0.95350000 -0.03690000 0.29920000
vn -0.93240000 -0.05130000 0.35770000
vn 0.40190000 -0.14140000 0.90470000
vn 0.45590000 -0.13280000 0.88000000
vn -0.94150000 -0.32590000 -0.08540000
vn -0.21050000 0.14180000 -0.96730000
vn -0.18940000 0.14070000 -0.97180000
vn 0.94690000 0.04560000 -0.31830000
vn 0.11390000 -0.16850000 -0.97910000
vn 0.93950000 -0.16310000 -0.30130000
vn 0.99920000 0.03730000 -0.01300000
vn 0.93950000 -0.16310000 -0.30130000
vn -0.66060000 0.54850000 0.51260000
vn 0.39480000 0.21200000 -0.89400000
vn 0.62160000 -0.56800000 -0.53950000
vn 0.96730000 0.19710000 0.15970000
vn 0.14070000 0.54150000 -0.82880000
vn 0.08600000 -0.75530000 0.64980000
vn 0.11390000 -0.16850000 -0.97910000
vn -0.34540000 -0.27790000 0.89640000
vn 0.97050000 0.12190000 0.20780000
vn -0.17620000 -0.94690000 -0.26880000
vn 0.08600000 -0.75530000 0.64980000
vn 0.40740000 -0.66610000 -0.62480000
vn -0.34540000 -0.27790000 0.89640000
vn 0.06730000 -0.91860000 0.38950000
vn -0.41680000 0.49220000 0.76420000
vn -0.08930000 -0.55740000 0.82540000
vn 0.02930000 -0.93100000 0.36370000
vn 0.19580000 -0.49220000 -0.84820000
vn -0.98520000 -0.11230000 -0.12920000
vn 0.32870000 0.88390000 0.33270000
vn -0.35170000 -0.86750000 -0.35170000
vn 0.02930000 -0.93100000 0.36370000
vn -0.08120000 -0.99270000 0.08940000
vn 0.08600000 -0.75530000 0.64980000
vn 0.11390000 -0.16850000 -0.97910000
vn -0.45240000 -0.73010000 -0.51220000
vn -0.36650000 -0.81580000 -0.44740000
vn -0.94150000 -0.32590000 -0.08540000
vn 0.97050000 0.12190000 0.20780000
vn 0.40190000 -0.14140000 0.90470000
vn 0.47080000 0.20810000 0.85730000
vn 0.94690000 0.04560000 -0.31830000
vn 0.92990000 0.05690000 -0.36330000
vn 0.93950000 -0.16310000 -0.30130000
vn -0.69960000 0.33530000 -0.63100000
vn 0.11090000 0.89690000 -0.42810000
vn 0.93850000 0.06880000 -0.33830000
vn -0.23450000 0.90960000 -0.34300000
vn -0.09580000 0.88540000 -0.45480000
vn -0.26600000 0.95890000 0.09850000
vn 0.88550000 0.43810000 0.15460000
vn 0.96630000 -0.24100000 -0.09000000
vn 0.83920000 0.36000000 0.40760000
vn 0.81870000 -0.44600000 -0.36180000
vn 0.99380000 0.10820000 0.02650000
vn 0.96240000 -0.06910000 -0.26250000
vn 0.48490000 0.19930000 0.85150000
vn 0.96630000 -0.24100000 -0.09000000
vn 0.94620000 0.23300000 -0.22480000
vn 0.15990000 -0.88980000 0.42750000
vn 0.26940000 -0.96240000 -0.03560000
vn 0.88550000 0.43810000 0.15460000
vn 0.96810000 -0.17370000 0.18030000
vn 0.07470000 -0.91540000 0.39550000
vn -0.38970000 0.27770000 0.87810000
vn 0.48490000 0.19930000 0.85150000
vn 0.99380000 0.10820000 0.02650000
vn 0.00050000 0.97920000 0.20290000
vn 0.11310000 -0.35200000 0.92910000
vn 0.15990000 -0.88980000 0.42750000
vn 0.96810000 -0.17370000 0.18030000
vn -0.98720000 0.08190000 -0.13690000
vn -0.69960000 0.33530000 -0.63100000
vn -0.23450000 0.90960000 -0.34300000
vn -0.21050000 0.14180000 -0.96730000
vn -0.81740000 -0.21240000 0.53550000
vn -0.18940000 0.14070000 -0.97180000
vn -0.92070000 -0.31820000 0.22610000
vn -0.93240000 -0.05130000 0.35770000
vn -0.95350000 -0.03690000 0.29920000
vn 0.99380000 0.10820000 0.02650000
vn -0.72630000 0.04090000 -0.68610000
vn 0.00050000 0.97920000 0.20290000
vn 0.96240000 -0.06910000 -0.26250000
vn 0.06450000 -0.28320000 -0.95690000
vn 0.00050000 0.97920000 0.20290000
vn -0.38970000 0.27770000 0.87810000
vn -0.72630000 0.04090000 -0.68610000
vn -0.95110000 -0.06940000 -0.30100000
vn -0.53250000 0.19400000 0.82390000
vn -0.99500000 0.01180000 0.09930000
vn -0.95110000 -0.06940000 -0.30100000
vn -0.92660000 -0.19390000 -0.32220000
vn -0.53250000 0.19400000 0.82390000
vn -0.42790000 0.79870000 0.42300000
vn -0.53250000 0.19400000 0.82390000
vn -0.38970000 0.27770000 0.87810000
vn 0.48490000 0.19930000 0.85150000
vn -0.42790000 0.79870000 0.42300000
vn 0.83920000 0.36000000 0.40760000
vn -0.95110000 -0.06940000 -0.30100000
vn -0.72630000 0.04090000 -0.68610000
vn -0.36670000 -0.62640000 -0.68790000
vn 0.06450000 -0.28320000 -0.95690000
vn -0.92660000 -0.19390000 -0.32220000
vn 0.15990000 -0.88980000 0.42750000
vn 0.11310000 -0.35200000 0.92910000
vn -0.81740000 -0.21240000 0.53550000
vn 0.18540000 -0.38420000 0.90450000
vn -0.92070000 -0.31820000 0.22610000
vn 0.07470000 -0.91540000 0.39550000
vn -0.09580000 0.88540000 -0.45480000
vn -0.26600000 0.95890000 0.09850000
vn 0.11090000 0.89690000 -0.42810000
vn 0.94620000 0.23300000 -0.22480000
vn 0.88550000 0.43810000 0.15460000
vn 0.07470000 -0.91540000 0.39550000
vn -0.33670000 -0.88850000 -0.31180000
vn -0.98720000 0.08190000 -0.13690000
vn 0.26940000 -0.96240000 -0.03560000
vn -0.92070000 -0.31820000 0.22610000
vn -0.97710000 0.19090000 0.09430000
vn -0.99500000 0.01180000 0.09930000
vn -0.97710000 0.19090000 0.09430000
vn -0.33670000 -0.88850000 -0.31180000
vn -0.36670000 -0.62640000 -0.68790000
vn -0.92660000 -0.19390000 -0.32220000
vn -0.05600000 -0.79860000 -0.59920000
vn 0.06450000 -0.28320000 -0.95690000
vn -0.36670000 -0.62640000 -0.68790000
vn -0.05600000 -0.79860000 -0.59920000
vn 0.96240000 -0.06910000 -0.26250000
vn 0.81870000 -0.44600000 -0.36180000
vn 0.11090000 0.89690000 -0.42810000
vn 0.83920000 0.36000000 0.40760000
vn -0.26600000 0.95890000 0.09850000
vn -0.23450000 0.90960000 -0.34300000
vn -0.98720000 0.08190000 -0.13690000
vn -0.97710000 0.19090000 0.09430000
vn -0.42790000 0.79870000 0.42300000
vn -0.99500000 0.01180000 0.09930000
vn -0.33670000 -0.88850000 -0.31180000
vn 0.81870000 -0.44600000 -0.36180000
vn 0.26940000 -0.96240000 -0.03560000
vn -0.05600000 -0.79860000 -0.59920000
vn 0.96630000 -0.24100000 -0.09000000
vn -1.00000000 -0.00000000 -0.00000000
vn -0.24910000 0.06650000 0.96620000
vn -0.20980000 0.32140000 -0.92340000
vn -0.00000000 0.17410000 0.98470000
vn 0.10720000 0.76440000 -0.63580000
vn -0.34400000 0.69050000 -0.63630000
vn -0.20980000 0.32140000 -0.92340000
vn 1.00000000 -0.00000000 -0.00000000
vn 0.10720000 0.76440000 -0.63580000
vn -1.00000000 -0.00000000 -0.00000000
vn -0.34400000 0.69050000 -0.63630000
vn -0.20980000 0.32140000 -0.92340000
vn -0.01950000 0.84470000 -0.53480000
vn 0.10720000 0.76440000 -0.63580000
vn -0.24910000 0.06650000 0.96620000
vn 1.00000000 -0.00000000 -0.00000000
vn 1.00000000 -0.00000000 -0.00000000
vn -0.24910000 0.06650000 0.96620000
vn -0.00000000 0.17410000 0.98470000
vn -0.00000000 -0.98050000 -0.19660000
vn -0.01730000 -0.97890000 -0.20360000
vn -0.00000000 -0.98050000 -0.19660000
vn -0.00000000 0.17410000 0.98470000
vn -1.00000000 -0.00000000 -0.00000000
vn -1.00000000 -0.00000000 -0.00000000
vn -0.01730000 -0.97890000 -0.20360000
vn -0.01950000 0.84470000 -0.53480000
vn 1.00000000 -0.00000000 -0.00000000
vn -0.01730000 -0.97890000 -0.20360000
vn -0.01950000 0.84470000 -0.53480000
vn -0.34400000 0.69050000 -0.63630000
vn -0.00000000 -0.98050000 -0.19660000
vn -0.82500000 0.07690000 -0.55980000
vn -0.82870000 0.08180000 -0.55360000
vn 0.99110000 0.02600000 -0.13050000
vn -0.00000000 0.98930000 0.14620000
vn -0.00000000 -0.98930000 -0.14620000
vn 0.99230000 0.01810000 -0.12270000
vn -0.82500000 0.07690000 -0.55980000
vn 0.99110000 0.02600000 -0.13050000
vn -0.82870000 0.08180000 -0.55360000
vn -0.00000000 -0.14620000 0.98930000
vn -0.00000000 0.98930000 0.14620000
vn -0.00000000 -0.98930000 -0.14620000
vn -0.82500000 0.07690000 -0.55980000
vn -0.82870000 0.08180000 -0.55360000
vn -0.00000000 -0.14620000 0.98930000
vn 0.99230000 0.01810000 -0.12270000
vn -0.00000000 0.98930000 0.14620000
vn 0.99110000 0.02600000 -0.13050000
vn -0.00000000 -0.14620000 0.98930000
vn -0.00000000 -0.14620000 0.98930000
vn 0.99230000 0.01810000 -0.12270000
vn -0.00000000 -0.98930000 -0.14620000
f 15//15 21//21 159//159
f 43//43 85//85 46//46
f 44//44 77//77 51//51
f 31//31 53//53 75//75
f 82//82 54//54 28//28
f 93//93 160//160 100//100
f 94//94 99//99 87//87
f 90//90 95//95 229//229
f 128//128 120//120 106//106
f 125//125 105//105 78//78
f 26//26 124//124 76//76
f 138//138 121//121 145//145
f 112//112 122//122 137//137
f 136//136 146//146 1//1
f 132//132 113//113 141//141
f 126//126 150//150 119//119
f 127//127 151//151 202//202
f 147//147 206//206 8//8
f 149//149 14//14 162//162
f 133//133 140//140 154//154
f 167//167 153//153 142//142
f 148//148 222//222 2//2
f 3//3 168//168 139//139
f 161//161 40//40 98//98
f 97//97 39//39 96//96
f 92//92 36//36 224//224
f 156//156 23//23 134//134
f 131//131 24//24 114//114
f 33//33 217//217 182//182
f 32//32 183//183 185//185
f 205//205 34//34 186//186
f 204//204 187//187 180//180
f 223//223 164//164 88//88
f 89//89 158//158 91//91
f 190//190 166//166 4//4
f 173//173 38//38 163//163
f 165//165 22//22 176//176
f 174//174 19//19 13//13
f 20//20 41//41 177//177
f 16//16 172//172 221//221
f 219//219 175//175 10//10
f 179//179 215//215 184//184
f 188//188 218//218 9//9
f 189//189 12//12 181//181
f 178//178 11//11 208//208
f 169//169 207//207 152//152
f 226//226 37//37 17//17
f 225//225 18//18 220//220
f 211//211 216//216 35//35
f 200//200 228//228 210//210
f 209//209 227//227 214//214
f 130//130 25//25 155//155
f 135//135 116//116 111//111
f 201//201 203//203 237//237
f 129//129 213//213 143//143
f 144//144 157//157 230//230
f 7//7 231//231 196//196
f 212//212 171//171 232//232
f 192//192 5//5 273//273
f 72//72 199//199 235//235
f 55//55 193//193 272//272
f 69//69 236//236 60//60
f 270//270 6//6 198//198
f 268//268 197//197 71//71
f 194//194 66//66 233//233
f 191//191 234//234 170//170
f 56//56 67//67 195//195
f 123//123 110//110 102//102
f 49//49 117//117 74//74
f 79//79 115//115 27//27
f 80//80 103//103 29//29
f 30//30 104//104 84//84
f 83//83 101//101 108//108
f 86//86 109//109 50//50
f 48//48 107//107 118//118
f 47//47 73//73 45//45
f 275//275 295//295 281//281
f 282//282 294//294 285//285
f 260//260 248//248 274//274
f 297//297 278//278 322//322
f 307//307 327//327 239//239
f 305//305 242//242 63//63
f 267//267 241//241 330//330
f 303//303 271//271 314//314
f 309//309 255//255 244//244
f 329//329 306//306 243//243
f 335//335 311//311 318//318
f 338//338 321//321 324//324
f 252//252 308//308 65//65
f 288//288 333//333 292//292
f 293//293 328//328 246//246
f 296//296 323//323 319//319
f 256//256 59//59 264//264
f 284//284 316//316 334//334
f 313//313 337//337 254//254
f 310//310 257//257 304//304
f 299//299 253//253 263//263
f 326//326 247//247 336//336
f 339//339 245//245 251//251
f 312//312 265//265 331//331
f 315//315 332//332 317//317
f 320//320 286//286 298//298
f 325//325 277//277 249//249
f 250//250 259//259 291//291
f 290//290 258//258 280//280
f 289//289 283//283 287//287
f 238//238 266//266 70//70
f 68//68 64//64 240//240
f 57//57 302//302 62//62
f 61//61 300//300 262//262
f 58//58 269//269 301//301
f 261//261 276//276 279//279
f 42//42 52//52 81//81
f 342//342 346//346 351//351
f 354//354 341//341 357//357
f 358//358 343//343 362//362
f 344//344 353//353 348//348
f 349//349 364//364 363//363
f 349//349 363//363 340//340
f 345//345 370//370 350//350
f 352//352 369//369 366//366
f 359//359 361//361 371//371
f 368//368 360//360 365//365
f 347//347 355//355 356//356
f 347//347 356//356 367//367
f 380//380 373//373 385//385
f 384//384 372//372 378//378
f 390//390 381//381 391//391
f 391//391 381//381 386//386
f 374//374 389//389 379//379
f 377//377 387//387 392//392
f 382//382 388//388 375//375
f 393//393 383//383 376//376

